<svg xmlns="http://www.w3.org/2000/svg" xmlns:xlink="http://www.w3.org/1999/xlink" viewBox="0 0 305 444"><defs><style>.cls-1{fill:none;}.cls-2,.cls-6{fill:#fff;}.cls-2,.cls-3{stroke:#000;stroke-miterlimit:10;}.cls-4{fill:red;}.cls-5{isolation:isolate;}.cls-7{clip-path:url(#clip-path);}.cls-8{fill:#ff0;}</style><clipPath id="clip-path"><polygon class="cls-1" points="66.58 270.72 36.1 195.14 262.22 138.32 292.7 213.91 66.58 270.72"/></clipPath></defs><title>back</title><g id="Layer_2" data-name="Layer 2"><g id="cards"><g id="Card_back" data-name="Card back"><rect class="cls-2" x="0.5" y="0.5" width="304" height="443" rx="18.72"/><rect class="cls-3" x="13.5" y="12.5" width="278" height="420" rx="18.72"/><ellipse class="cls-4" cx="152.35" cy="220.08" rx="187.73" ry="95.43" transform="translate(-115.11 209.44) rotate(-53.03)"/><g class="cls-5"><path d="M43.32,301.46a1.49,1.49,0,0,1-1.39-.94L9.52,220.17a1.5,1.5,0,0,1,.23-1.51L31.5,191.92a1.56,1.56,0,0,1,.8-.51L98,174.91a1.57,1.57,0,0,1,.37,0,1.5,1.5,0,0,1,1.39.95l.66,1.63,2.88-3.55a1.56,1.56,0,0,1,.8-.51l25.75-6.48a1.5,1.5,0,0,1,.37,0,1.47,1.47,0,0,1,.92.32l9.25,7.26L150.44,162a1.48,1.48,0,0,1,.8-.51l27.57-6.94a1.55,1.55,0,0,1,.37,0,1.5,1.5,0,0,1,1.39.93L186.82,171l18.5-22.73a1.41,1.41,0,0,1,.8-.5l28.69-7.21a1.47,1.47,0,0,1,.36,0,1.51,1.51,0,0,1,1.15.53L298,214a1.51,1.51,0,0,1,0,1.91l-21.76,26.74a1.49,1.49,0,0,1-.79.51l-30.51,7.66a1.49,1.49,0,0,1-.36,0,1.51,1.51,0,0,1-1.2-.6l-7.84-10.41-3.25.82L219,257.05a1.49,1.49,0,0,1-.79.51l-28,7-2,.51-24,6a1.54,1.54,0,0,1-1.29-.28l-9.17-7.19-10,12.3a1.5,1.5,0,0,1-.8.51l-27.52,6.92a1.64,1.64,0,0,1-.37.05,1.49,1.49,0,0,1-1.39-.94l-.38-.94-2.12,2.59a1.44,1.44,0,0,1-.79.51L43.68,301.41A1.49,1.49,0,0,1,43.32,301.46Z"/><path class="cls-6" d="M235.17,142l61.65,73-21.75,26.75-30.5,7.66-8.44-11.2-4.7,1.18L217.82,256.1l-28,7-2,.5-24,6-10.33-8.1L142.6,275l-27.52,6.92-1.33-3.3L110,283.2,43.32,300,10.91,219.61l21.75-26.74,65.67-16.51,1.6,4,4.5-5.53,25.75-6.47,10.4,8.17,11-13.55,27.58-6.93,7.2,17.84,20.1-24.7,28.69-7.2m0-3a3,3,0,0,0-.73.09l-28.69,7.2a2.92,2.92,0,0,0-1.59,1l-16.9,20.76L182,154.92a3,3,0,0,0-2.78-1.87,2.61,2.61,0,0,0-.73.09l-27.58,6.93a3,3,0,0,0-1.59,1l-9.17,11.26L132,166a3,3,0,0,0-1.85-.64,3.12,3.12,0,0,0-.74.09l-25.75,6.48a3,3,0,0,0-1.59,1l-1.35,1.66a3,3,0,0,0-2.42-1.24,3,3,0,0,0-.73.09L31.93,190a3,3,0,0,0-1.59,1L8.58,217.71a3,3,0,0,0-.45,3l32.41,80.35A3,3,0,0,0,43.32,303a3.1,3.1,0,0,0,.73-.09l66.71-16.76a3,3,0,0,0,1.6-1l.74-.91a3,3,0,0,0,2,.75,3,3,0,0,0,.73-.09l27.52-6.92a3,3,0,0,0,1.6-1L154,265.74l8,6.28a3,3,0,0,0,1.85.64,3,3,0,0,0,.73-.09l24-6,2-.5,28-7a3,3,0,0,0,1.6-1l13-16,1.8-.45,7.24,9.61a3,3,0,0,0,2.4,1.2,3,3,0,0,0,.73-.09l30.5-7.67a3,3,0,0,0,1.6-1l21.75-26.74a3,3,0,0,0,0-3.83l-61.66-73a3,3,0,0,0-2.29-1.06Z"/></g><g class="cls-5"><g class="cls-7"><polyline class="cls-8" points="95.8 182.76 39.36 196.94 67.92 267.77 125.42 253.32 119.69 239.12 81.86 248.63 75.08 231.81 109.19 223.24 104.13 210.69 70.02 219.26 64.37 205.25 101.14 196.01 95.8 182.76"/><path class="cls-6" d="M67.92,267.77,39.36,196.94,95.8,182.76,101.14,196l-36.77,9.24,5.65,14,34.11-8.57,5.06,12.55-34.11,8.57,6.78,16.82,37.83-9.51,5.73,14.2-57.5,14.45m29.22-88-61,15.34,30.48,75.58,62.11-15.6-7.64-19L83.2,245.67l-4.86-12.06L112.45,225l-7-17.31L71.36,216.3,67.63,207l36.77-9.24-7.26-18"/><polyline class="cls-8" points="176.65 162.44 158.29 167.05 175.7 210.23 129.82 174.21 111.11 178.91 139.68 249.74 157.99 245.14 140.71 202.27 186.31 238.02 205.21 233.28 176.65 162.44"/><path class="cls-6" d="M175.7,210.23l-17.41-43.18,18.36-4.61,28.56,70.83L186.31,238l-45.6-35.75L158,245.14l-18.31,4.6-28.56-70.83,18.7-4.7,45.88,36m2.3-50.75-23,5.78,15.25,37.82-40.2-31.55-22.23,5.58,30.48,75.58,22.92-5.75L146.12,209.4l39.94,31.3,22.42-5.63L178,159.48"/><path class="cls-8" d="M231.59,198.52l-3.43-33.92,22.13,29.22-18.7,4.7m2.47-50.5-22.31,5.6,2.76,77.32,19.86-5L233,213l26.6-6.69,8.42,11.2,20.44-5.14L234.06,148"/><path class="cls-6" d="M233.75,195.36l-2.3-22.62,14.76,19.49-12.46,3.13m-5.59-30.76,3.43,33.92,18.7-4.7L228.16,164.6m-13.65,66.34-2.76-77.32,22.31-5.6,54.35,64.35L268,217.51l-8.42-11.2L233,213,234.37,226l-19.86,5m20.19-85.7-25.5,6.41,2.94,82.5,24.91-6.26-1.42-12.95,23.17-5.82,8.43,11.19,25.47-6.4-58-68.67"/></g></g></g></g></g></svg>