<svg xmlns="http://www.w3.org/2000/svg" viewBox="0 0 305 444"><defs><style>.cls-1,.cls-5,.cls-7,.cls-8{fill:#fff;}.cls-1,.cls-2,.cls-5,.cls-7,.cls-8{stroke:#000;}.cls-1,.cls-2,.cls-3,.cls-5,.cls-7,.cls-8{stroke-miterlimit:10;}.cls-2,.cls-3{fill:#1060d4;}.cls-3{stroke:#fff;stroke-width:11px;}.cls-4,.cls-5{font-size:97px;}.cls-4,.cls-5,.cls-6,.cls-7{font-family:Arial-Black, Arial Black;font-weight:800;}.cls-5,.cls-7,.cls-8{stroke-width:2px;}.cls-6,.cls-7{font-size:61.7px;}</style></defs><title>blue-+2</title><g id="Layer_2" data-name="Layer 2"><g id="cards"><g id="blue"><g id="_2_copy_2" data-name="+2 copy 2"><rect class="cls-1" x="0.5" y="0.5" width="304" height="443" rx="18.72"/><rect class="cls-2" x="13.5" y="12.5" width="278" height="420" rx="18.72"/><ellipse class="cls-3" cx="152.35" cy="220.08" rx="187.73" ry="95.43" transform="translate(-115.11 209.44) rotate(-53.03)"/><g id="numbers_copy_29" data-name="numbers copy 29"><text class="cls-4" transform="translate(44.81 104.58) scale(0.96 1)">2</text><text class="cls-5" transform="translate(49.91 99.96) scale(0.96 1)">2</text><text class="cls-6" transform="translate(14.91 93.85) scale(0.96 1)">+</text><text class="cls-7" transform="translate(18.09 90.67) scale(0.96 1)">+</text><text class="cls-4" transform="translate(260 339.48) rotate(180) scale(0.96 1)">2</text><text class="cls-5" transform="translate(254.91 344.1) rotate(180) scale(0.96 1)">2</text><text class="cls-6" transform="translate(289.91 350.2) rotate(180) scale(0.96 1)">+</text><text class="cls-7" transform="translate(286.73 353.38) rotate(180) scale(0.96 1)">+</text><rect x="131.97" y="152.48" width="69.31" height="101" rx="18.72"/><rect class="cls-8" x="136.97" y="147.48" width="69.31" height="101" rx="18.72"/><rect x="95.97" y="196.48" width="69.31" height="101" rx="18.72"/><rect class="cls-8" x="100.97" y="191.48" width="69.31" height="101" rx="18.72"/></g></g></g></g></g></svg>