<svg xmlns="http://www.w3.org/2000/svg" viewBox="0 0 305 444"><defs><style>.cls-1,.cls-4{fill:#fff;}.cls-1,.cls-2,.cls-4{stroke:#000;}.cls-1,.cls-2,.cls-3,.cls-4{stroke-miterlimit:10;}.cls-2,.cls-3{fill:#1060d4;}.cls-3{stroke:#fff;stroke-width:11px;}.cls-4{stroke-width:2px;}</style></defs><title>blue-skip</title><g id="Layer_2" data-name="Layer 2"><g id="cards"><g id="blue"><g id="skip_copy_2" data-name="skip copy 2"><rect class="cls-1" x="0.5" y="0.5" width="304" height="443" rx="18.72"/><rect class="cls-2" x="13.5" y="12.5" width="278" height="420" rx="18.72"/><ellipse class="cls-3" cx="152.35" cy="220.08" rx="187.73" ry="95.43" transform="translate(-115.11 209.44) rotate(-53.03)"/><g id="numbers_copy_18" data-name="numbers copy 18"><path d="M197.79,174.34c-24.5-24.5-65.38-23.34-91.32,2.6s-27.09,66.81-2.59,91.31,65.38,23.34,91.31-2.59S222.29,198.84,197.79,174.34Zm-77.18,16.74a48.17,48.17,0,0,1,33.91-14.37,41.64,41.64,0,0,1,21.41,5.77L112,246.39C102,229.64,105.08,206.61,120.61,191.08Zm74.8,27.81a46.67,46.67,0,0,1-4,17.51,49.86,49.86,0,0,1-10.4,15.12,48.06,48.06,0,0,1-32.62,14.35,41.23,41.23,0,0,1-27.09-8.8l65.27-65.27A41.12,41.12,0,0,1,195.41,218.89Z"/><path class="cls-4" d="M202.79,169.34c-24.5-24.5-65.38-23.34-91.32,2.6s-27.09,66.81-2.59,91.31,65.38,23.34,91.31-2.59S227.29,193.84,202.79,169.34Zm-77.18,16.74a48.17,48.17,0,0,1,33.91-14.37,41.64,41.64,0,0,1,21.41,5.77L117,241.39C107,224.64,110.08,201.61,125.61,186.08Zm74.8,27.81a46.67,46.67,0,0,1-4,17.51,49.86,49.86,0,0,1-10.4,15.12,48.06,48.06,0,0,1-32.62,14.35,41.23,41.23,0,0,1-27.09-8.8l65.27-65.27A41.12,41.12,0,0,1,200.41,213.89Z"/><path d="M84.58,44.55C71.22,31.19,48.92,31.82,34.77,46S20,82.41,33.36,95.77,69,108.5,83.16,94.36,97.94,57.91,84.58,44.55Zm-42.1,9.13A26.32,26.32,0,0,1,61,45.84,22.7,22.7,0,0,1,72.66,49L37.8,83.85C32.35,74.71,34,62.15,42.48,53.68Zm40.8,15.17a25.33,25.33,0,0,1-2.16,9.55,27.23,27.23,0,0,1-5.67,8.24,26.2,26.2,0,0,1-17.79,7.83,22.46,22.46,0,0,1-14.78-4.8l35.6-35.6A22.4,22.4,0,0,1,83.28,68.85Z"/><path class="cls-4" d="M87.31,41.82C73.94,28.46,51.65,29.09,37.5,43.24S22.72,79.68,36.09,93s35.66,12.73,49.8-1.41S100.67,55.19,87.31,41.82ZM45.21,51a26.3,26.3,0,0,1,18.5-7.84,22.74,22.74,0,0,1,11.67,3.15L40.53,81.12C35.08,72,36.74,59.42,45.21,51ZM86,66.12a25.48,25.48,0,0,1-2.16,9.55,27.27,27.27,0,0,1-5.67,8.25,26.19,26.19,0,0,1-17.8,7.82,22.45,22.45,0,0,1-14.77-4.8l35.6-35.59A22.4,22.4,0,0,1,86,66.12Z"/><path d="M270.58,356.55c-13.36-13.36-35.66-12.73-49.81,1.42s-14.77,36.44-1.41,49.8,35.66,12.73,49.8-1.41S283.94,369.91,270.58,356.55Zm-42.1,9.13a26.32,26.32,0,0,1,18.5-7.84A22.7,22.7,0,0,1,258.66,361L223.8,395.85C218.35,386.71,220,374.15,228.48,365.68Zm40.8,15.17a25.33,25.33,0,0,1-2.16,9.55,27.23,27.23,0,0,1-5.67,8.24,26.2,26.2,0,0,1-17.79,7.83,22.46,22.46,0,0,1-14.78-4.8l35.6-35.6A22.4,22.4,0,0,1,269.28,380.85Z"/><path class="cls-4" d="M273.31,353.82c-13.37-13.36-35.66-12.73-49.81,1.42s-14.78,36.44-1.41,49.8,35.66,12.73,49.8-1.41S286.67,367.19,273.31,353.82ZM231.21,363a26.3,26.3,0,0,1,18.5-7.84,22.74,22.74,0,0,1,11.67,3.15l-34.85,34.86C221.08,384,222.74,371.42,231.21,363ZM272,378.12a25.48,25.48,0,0,1-2.16,9.55,27.27,27.27,0,0,1-5.67,8.25,26.19,26.19,0,0,1-17.8,7.82,22.45,22.45,0,0,1-14.77-4.8l35.6-35.59A22.4,22.4,0,0,1,272,378.12Z"/></g></g></g></g></g></svg>