<svg xmlns="http://www.w3.org/2000/svg" viewBox="0 0 305 444"><defs><style>.cls-1,.cls-4{fill:#fff;}.cls-1,.cls-2,.cls-4{stroke:#000;}.cls-1,.cls-2,.cls-3,.cls-4{stroke-miterlimit:10;}.cls-2,.cls-3{fill:#489a17;}.cls-3{stroke:#fff;stroke-width:11px;}.cls-4{stroke-width:2px;}</style></defs><title>green-switch</title><g id="Layer_2" data-name="Layer 2"><g id="cards"><g id="green"><g id="switch_copy_3" data-name="switch copy 3"><rect class="cls-1" x="0.5" y="0.5" width="304" height="443" rx="18.72"/><rect class="cls-2" x="13.5" y="12.5" width="278" height="420" rx="18.72"/><ellipse class="cls-3" cx="152.35" cy="220.08" rx="187.73" ry="95.43" transform="translate(-115.11 209.44) rotate(-53.03)"/><g id="numbers_copy_43" data-name="numbers copy 43"><path d="M113.38,224.61,131,242.22,164.23,209l2.52,2.52c9.76,9.76,11,24.32,2.83,32.52l-18.39,18.39,17.3,17.29c.48.49.34,1.24-.26,1.35L100.59,293.6a1,1,0,0,1-1.09-1.09L112,224.87A.76.76,0,0,1,113.38,224.61Z"/><path class="cls-4" d="M118.38,219.61,136,237.22,169.23,204l2.52,2.52c9.76,9.76,11,24.32,2.83,32.52l-18.39,18.39,17.3,17.29c.48.49.34,1.24-.26,1.35L105.59,288.6a1,1,0,0,1-1.09-1.09L117,219.87A.76.76,0,0,1,118.38,219.61Z"/><path d="M190.56,214.64,173,197l-33.24,33.24-2.52-2.53c-9.77-9.76-11-24.32-2.83-32.52l18.39-18.39-17.3-17.29c-.49-.49-.34-1.24.25-1.35l67.65-12.54a1,1,0,0,1,1.09,1.09l-12.54,67.65C191.8,215,191.05,215.13,190.56,214.64Z"/><path class="cls-4" d="M195.56,209.64,178,192l-33.24,33.24-2.52-2.53c-9.77-9.76-11-24.32-2.83-32.52l18.39-18.39-17.3-17.29c-.49-.49-.34-1.24.25-1.35l67.65-12.54a1,1,0,0,1,1.09,1.09l-12.54,67.65C196.8,210,196.05,210.13,195.56,209.64Z"/><path d="M33.61,75.46,44.05,85.9,63.77,66.19l1.5,1.49c5.79,5.8,6.54,14.43,1.67,19.3L56,97.89,66.3,108.15c.29.29.2.73-.15.79L26,116.38a.57.57,0,0,1-.64-.64l7.44-40.13C32.87,75.25,33.32,75.17,33.61,75.46Z"/><path class="cls-4" d="M36.57,72.49,47,82.94,66.73,63.22l1.5,1.5C74,70.51,74.77,79.15,69.91,84L59,94.92l10.26,10.26c.29.29.21.73-.15.8L29,113.42a.58.58,0,0,1-.64-.65l7.43-40.13A.45.45,0,0,1,36.57,72.49Z"/><path d="M79.39,69.54,69,59.09,49.23,78.81l-1.5-1.5C41.94,71.52,41.19,62.88,46.06,58L57,47.11,46.7,36.85a.45.45,0,0,1,.15-.8L87,28.61a.58.58,0,0,1,.64.65L80.19,69.39C80.13,69.74,79.68,69.83,79.39,69.54Z"/><path class="cls-4" d="M82.36,66.57,71.91,56.13,52.2,75.84l-1.5-1.49c-5.79-5.8-6.54-14.43-1.68-19.3L59.93,44.14,49.67,33.88a.45.45,0,0,1,.15-.8L90,25.65a.58.58,0,0,1,.65.64L83.16,66.42C83.09,66.78,82.65,66.86,82.36,66.57Z"/><path d="M272.36,369.57l-10.45-10.44L242.2,378.84l-1.5-1.49c-5.79-5.8-6.54-14.43-1.68-19.3l10.91-10.91-10.26-10.26a.45.45,0,0,1,.15-.8L280,328.65a.58.58,0,0,1,.65.64l-7.44,40.13C273.09,369.78,272.65,369.86,272.36,369.57Z"/><path class="cls-4" d="M269.39,372.54,259,362.09l-19.72,19.72-1.5-1.5c-5.79-5.79-6.54-14.43-1.67-19.29L247,350.11,236.7,339.85a.45.45,0,0,1,.15-.8L277,331.61a.58.58,0,0,1,.64.65l-7.44,40.13C270.13,372.74,269.68,372.83,269.39,372.54Z"/><path d="M226.57,375.49,237,385.94l19.71-19.72,1.5,1.5c5.79,5.79,6.54,14.43,1.68,19.29L249,397.92l10.26,10.26c.29.29.21.73-.15.8L219,416.42a.58.58,0,0,1-.64-.65l7.43-40.13A.45.45,0,0,1,226.57,375.49Z"/><path class="cls-4" d="M223.61,378.46l10.44,10.44,19.72-19.71,1.5,1.49c5.79,5.8,6.54,14.43,1.67,19.3L246,400.89l10.26,10.26c.29.29.2.73-.15.79L216,419.38a.57.57,0,0,1-.64-.64l7.44-40.13C222.87,378.25,223.32,378.17,223.61,378.46Z"/></g></g></g></g></g></svg>