<svg xmlns="http://www.w3.org/2000/svg" viewBox="0 0 305 444"><defs><style>.cls-1,.cls-5,.cls-7{fill:#fff;}.cls-1,.cls-10,.cls-2,.cls-5,.cls-7,.cls-8{stroke:#000;}.cls-1,.cls-10,.cls-11,.cls-2,.cls-3,.cls-5,.cls-7,.cls-8,.cls-9{stroke-miterlimit:10;}.cls-2,.cls-3{fill:#ffe61e;}.cls-11,.cls-3,.cls-9{stroke:#fff;}.cls-3{stroke-width:11px;}.cls-4,.cls-5{font-size:160px;}.cls-4,.cls-5,.cls-6,.cls-7{font-family:Arial-Black, Arial Black;font-weight:800;}.cls-5,.cls-7{stroke-width:2px;}.cls-6,.cls-7{font-size:97px;}.cls-10,.cls-11,.cls-8,.cls-9{fill:none;}.cls-8,.cls-9{stroke-width:7px;}.cls-10,.cls-11{stroke-width:4px;}</style></defs><title>yellow-9</title><g id="Layer_2" data-name="Layer 2"><g id="cards"><g id="yellow"><g id="_9_copy_4" data-name="9 copy 4"><rect class="cls-1" x="0.5" y="0.5" width="304" height="443" rx="18.72"/><rect class="cls-2" x="13.5" y="12.5" width="278" height="420" rx="18.72"/><ellipse class="cls-3" cx="152.35" cy="220.08" rx="187.73" ry="95.43" transform="translate(-115.11 209.44) rotate(-53.03)"/><g id="numbers_copy_54" data-name="numbers copy 54"><text class="cls-4" transform="translate(96.62 274.89) scale(0.96 1)">9</text><text class="cls-5" transform="translate(101.01 269.4) scale(0.96 1)">9</text><text class="cls-6" transform="translate(24.81 104.58) scale(0.96 1)">9</text><text class="cls-7" transform="translate(29.91 99.96) scale(0.96 1)">9</text><text class="cls-6" transform="matrix(-0.96, 0.01, -0.01, -1, 280.17, 339.44)">9</text><text class="cls-7" transform="translate(276.3 343.3) rotate(180) scale(0.96 1)">9</text><line class="cls-8" x1="112.94" y1="293.83" x2="182.33" y2="293.83"/><line class="cls-9" x1="116.54" y1="289.78" x2="185.94" y2="289.78"/><polyline class="cls-10" points="33.94 118.47 52.98 118.47 57.7 118.47 81.47 118.47"/><polyline class="cls-11" points="36.41 115.69 57.7 115.69 83.94 115.69"/><polyline class="cls-10" points="271.82 325.25 252.78 325.25 248.05 325.25 224.28 325.25"/><polyline class="cls-11" points="269.35 328.03 248.05 328.03 221.82 328.03"/></g></g></g></g></g></svg>