<svg xmlns="http://www.w3.org/2000/svg" xmlns:xlink="http://www.w3.org/1999/xlink" viewBox="0 0 432.2 311.99"><defs><style>.cls-1{fill:none;}.cls-2{fill:red;}.cls-3{isolation:isolate;}.cls-4{fill:#fff;}.cls-5{clip-path:url(#clip-path);}.cls-6{fill:#ff0;}</style><clipPath id="clip-path"><polygon class="cls-1" points="87.2 226.22 42.2 114.61 376.11 30.71 421.12 142.33 87.2 226.22"/></clipPath></defs><title>logo</title><g id="Layer_2" data-name="Layer 2"><g id="Logo"><ellipse class="cls-2" cx="211.87" cy="156" rx="215.36" ry="147.71" transform="translate(-38.73 75.84) rotate(-18.63)"/><g class="cls-3"><path d="M52.85,271.9a2.49,2.49,0,0,1-2.31-1.57L2.68,151.68a2.52,2.52,0,0,1,.38-2.52l32.12-39.49a2.54,2.54,0,0,1,1.33-.84l97-24.37a2.55,2.55,0,0,1,.61-.08A2.51,2.51,0,0,1,136.41,86l.78,2,4-4.86a2.5,2.5,0,0,1,1.33-.85l38-9.56a2.44,2.44,0,0,1,2.15.46l13.43,10.55,14.73-18.1a2.5,2.5,0,0,1,1.33-.85l40.72-10.24a2.55,2.55,0,0,1,.61-.08A2.5,2.5,0,0,1,255.8,56l9,22.42,27-33.19a2.5,2.5,0,0,1,1.33-.85L335.56,33.7a2.45,2.45,0,0,1,2.51.81l91,107.79a2.49,2.49,0,0,1,0,3.19L397,185a2.5,2.5,0,0,1-1.33.85l-45,11.31a2.55,2.55,0,0,1-.61.08,2.51,2.51,0,0,1-2-1L336.58,181l-4.52,1.14-19.58,24.06a2.5,2.5,0,0,1-1.33.85l-41.33,10.39-2.92.74-35.41,8.89a2.55,2.55,0,0,1-.61.08,2.46,2.46,0,0,1-1.54-.53L216,216.18l-14.6,17.95a2.5,2.5,0,0,1-1.33.85l-40.65,10.21a2.09,2.09,0,0,1-.61.08,2.48,2.48,0,0,1-2.31-1.56l-.39-1-2.81,3.46a2.5,2.5,0,0,1-1.33.85L53.46,271.82A2.55,2.55,0,0,1,52.85,271.9Z"/><path class="cls-4" d="M336.16,36.12l91,107.8L395.08,183.4l-45,11.32-12.46-16.54-6.94,1.74-20.1,24.72L269.21,215l-2.92.75-35.41,8.89-15.25-12-16.16,19.85-40.65,10.22-2-4.87-5.49,6.75L52.85,269.39,5,150.74l32.12-39.49,97-24.36,2.37,5.89,6.63-8.15,38-9.57,15.36,12.07,16.28-20,40.72-10.25,10.63,26.35L293.8,46.76l42.36-10.64m0-5a5,5,0,0,0-1.21.15L292.58,41.91a5,5,0,0,0-2.66,1.69L265.58,73.51,258.11,55a5,5,0,0,0-4.63-3.13,5.15,5.15,0,0,0-1.22.15L211.54,62.28A4.94,4.94,0,0,0,208.88,64L195.7,80.16l-11.49-9a5,5,0,0,0-4.31-.92l-38,9.57a5,5,0,0,0-2.66,1.69l-1.55,1.91a5,5,0,0,0-3.57-1.5,4.7,4.7,0,0,0-1.22.16l-97,24.36a5.05,5.05,0,0,0-2.66,1.7L1.12,147.59a5,5,0,0,0-.76,5L48.22,271.26a5,5,0,0,0,4.63,3.14,4.59,4.59,0,0,0,1.22-.16l98.52-24.74a5.05,5.05,0,0,0,2.66-1.7l.74-.91a5,5,0,0,0,4,.73l40.65-10.22a5,5,0,0,0,2.66-1.69l13.05-16.05,11.39,8.93a5,5,0,0,0,3.09,1.07,5.15,5.15,0,0,0,1.22-.15l35.4-8.89,2.94-.75,41.32-10.38a5,5,0,0,0,2.66-1.7l19.05-23.42,2.11-.53,10.47,13.89a5,5,0,0,0,4,2,5.09,5.09,0,0,0,1.22-.15l45-11.32a4.94,4.94,0,0,0,2.66-1.69l32.12-39.49a5,5,0,0,0-.06-6.38L340,32.9a5,5,0,0,0-3.82-1.78Z"/></g><g class="cls-3"><g class="cls-5"><polyline class="cls-6" points="130.35 96.32 47.01 117.26 89.19 221.86 174.09 200.53 165.63 179.56 109.77 193.59 99.75 168.76 150.12 156.11 142.65 137.57 92.28 150.22 83.94 129.53 138.24 115.89 130.35 96.32"/><path class="cls-4" d="M89.19,221.86,47,117.26l83.34-20.94,7.89,19.57-54.3,13.64,8.34,20.69,50.37-12.65,7.47,18.54L99.76,168.76l10,24.83,55.86-14,8.46,21-84.9,21.33M132.34,92,42.2,114.61l45,111.61,91.72-23-11.29-28-55.88,14-7.18-17.81,50.37-12.66-10.31-25.55L94.26,145.86l-5.51-13.67,54.31-13.65L132.34,92"/><polyline class="cls-6" points="249.74 66.33 222.63 73.14 248.34 136.9 180.6 83.7 152.97 90.64 195.15 195.24 222.19 188.44 196.67 125.14 264.02 177.94 291.92 170.93 249.74 66.33"/><path class="cls-4" d="M248.34,136.89,222.63,73.14l27.11-6.81,42.18,104.59-27.9,7-67.35-52.8,25.52,63.3-27,6.8L153,90.64,180.6,83.7l67.74,53.19M251.74,62l-33.92,8.52,22.52,55.86L181,79.74,148.15,88l45,111.61L227,191.1l-22.35-55.43,59,46.22,33.11-8.31L251.74,62"/><path class="cls-6" d="M330.88,119.6l-5.07-50.09,32.68,43.16-27.61,6.93M334.52,45,301.58,53.3l4.08,114.17L335,160.1,332.89,141l39.28-9.87,12.43,16.53,30.18-7.59L334.52,45"/><path class="cls-4" d="M334.06,114.94l-3.39-33.4,21.8,28.78-18.41,4.62m-8.25-45.43,5.07,50.09,27.61-6.93L325.81,69.51m-20.15,98L301.58,53.3,334.52,45l80.26,95-30.18,7.59-12.43-16.53L332.89,141,335,160.1l-29.32,7.37m29.8-126.55-37.65,9.47,4.35,121.83L338.94,163l-2.1-19.12,34.22-8.6,12.44,16.53,37.62-9.45L335.46,40.92"/></g></g></g></g></svg>