<svg xmlns="http://www.w3.org/2000/svg" viewBox="0 0 305 444"><defs><style>.cls-1,.cls-3{fill:#fff;}.cls-1,.cls-2{stroke:#000;}.cls-1,.cls-2,.cls-3{stroke-miterlimit:10;}.cls-3{stroke:#fff;stroke-width:11px;}.cls-4{fill:#489a17;}.cls-5{fill:#ffe61e;}.cls-6{fill:red;}.cls-7{fill:#1060d4;}</style></defs><title>black-wild</title><g id="Layer_2" data-name="Layer 2"><g id="cards"><g id="black"><g id="wild"><rect class="cls-1" x="0.5" y="0.5" width="304" height="443" rx="18.72"/><rect class="cls-2" x="13.5" y="12.5" width="278" height="420" rx="18.72"/><ellipse class="cls-3" cx="152.35" cy="220.08" rx="187.73" ry="95.43" transform="translate(-115.11 209.44) rotate(-53.03)"/><path class="cls-4" d="M40.86,369.86c41.82,30.68,124.67-9.56,186.46-90.32l-73.88-55.76Z"/><path class="cls-5" d="M75.09,164.65C14.32,246.78-1.32,338.09,40.35,369.49l.51.37L153.44,223.78Z"/><path class="cls-6" d="M269.52,73.16a50.39,50.39,0,0,0-3.87-3.25C223.58,38.22,139,79.58,76.83,162.31c-.59.78-1.16,1.56-1.74,2.34l78.35,59.13Z"/><path class="cls-7" d="M269.52,73.16,153.44,223.78l73.88,55.76c.62-.81,1.24-1.62,1.85-2.44C289.39,197,306.62,107.57,269.52,73.16Z"/><ellipse class="cls-3" cx="60.66" cy="64.33" rx="45.9" ry="23.34" transform="translate(-27.22 74.1) rotate(-53.03)"/><path class="cls-4" d="M33.39,101c10.23,7.5,30.49-2.34,45.6-22.08L60.92,65.23Z"/><path class="cls-5" d="M41.76,50.77C26.9,70.85,23.08,93.18,33.27,100.86l.12.09L60.92,65.23Z"/><path class="cls-6" d="M89.31,28.4a12.05,12.05,0,0,0-1-.79C78.07,19.86,57.4,30,42.19,50.2l-.43.57L60.92,65.23Z"/><path class="cls-7" d="M89.31,28.4,60.92,65.23,79,78.87l.45-.6C94.17,58.69,98.38,36.81,89.31,28.4Z"/><ellipse class="cls-3" cx="245.05" cy="380.47" rx="45.9" ry="23.34" transform="translate(-206.3 347.44) rotate(-53.03)"/><path class="cls-4" d="M272.31,343.84c-10.23-7.5-30.49,2.34-45.59,22.09l18.06,13.63Z"/><path class="cls-5" d="M263.94,394c14.86-20.08,18.69-42.41,8.49-50.09l-.12-.09-27.53,35.72Z"/><path class="cls-6" d="M216.4,416.39a10.56,10.56,0,0,0,.95.8c10.28,7.75,31-2.37,46.17-22.6l.42-.57-19.16-14.46Z"/><path class="cls-7" d="M216.4,416.39l28.38-36.83-18.06-13.63-.46.59C211.54,386.1,207.33,408,216.4,416.39Z"/></g></g></g></g></svg>