<svg xmlns="http://www.w3.org/2000/svg" viewBox="0 0 305 444"><defs><style>.cls-1,.cls-3,.cls-9{fill:#fff;}.cls-1,.cls-2,.cls-4,.cls-5,.cls-6,.cls-7{stroke:#000;}.cls-1,.cls-2,.cls-3,.cls-4,.cls-5,.cls-6,.cls-7,.cls-8{stroke-miterlimit:10;}.cls-3,.cls-8{stroke:#fff;}.cls-3{stroke-width:11px;}.cls-4{fill:#ffe61e;}.cls-5{fill:red;}.cls-6{fill:#489a17;}.cls-7{fill:#1060d4;}.cls-8{stroke-width:2px;}</style></defs><title>black-+4</title><g id="Layer_2" data-name="Layer 2"><g id="cards"><g id="black"><g id="_4" data-name="+4"><rect class="cls-1" x="0.5" y="0.5" width="304" height="443" rx="18.72"/><rect class="cls-2" x="13.5" y="12.5" width="278" height="420" rx="18.72"/><ellipse class="cls-3" cx="152.35" cy="220.08" rx="187.73" ry="95.43" transform="translate(-115.11 209.44) rotate(-53.03)"/><rect x="171.85" y="112.5" width="69.31" height="101" rx="18.72"/><rect class="cls-4" x="177.85" y="107.5" width="69.31" height="101" rx="18.72"/><rect x="141.85" y="180.5" width="69.31" height="101" rx="18.72"/><rect class="cls-5" x="146.85" y="175.5" width="69.31" height="101" rx="18.72"/><rect x="62.05" y="228.91" width="69.31" height="101" rx="18.72"/><rect class="cls-6" x="67.05" y="223.91" width="69.31" height="101" rx="18.72"/><rect x="92.05" y="152.91" width="69.31" height="101" rx="18.72"/><rect class="cls-7" x="97.05" y="147.91" width="69.31" height="101" rx="18.72"/><path class="cls-8" d="M89.58,76.45V83h17.83V75.23h6.49V58.92h-5.68V32.5H92L70.23,58.41H61.94V46H48L33,60.41V75.66H45V87H62V76.66Zm4.84-13.54H80.55L94.42,47.5Z"/><path class="cls-9" d="M94,71.39H74v-9L94,38.61h9.57V62.88h5v8.51h-5v7.38H94Zm0-8.51V50.45L83.46,62.88Z"/><path class="cls-9" d="M37.63,61.79H48.69V50.19H58v11.6H69.13v9.73H58V83.06H48.69V71.52H37.63Z"/><path class="cls-8" d="M214.35,368.4v-6.55H196.52v7.77H190v16.31h5.68v26.42h16.21l21.78-25.91H242v12.41h13.95l15-14.41V369.19h-12V357.85h-17v10.34Zm-4.84,13.54h13.87l-13.87,15.41Z"/><path class="cls-9" d="M209.91,373.46h20v9l-20,23.76h-9.57V382h-5v-8.51h5v-7.38h9.57Zm0,8.51V394.4L220.47,382Z"/><path class="cls-9" d="M266.3,383.06H255.24v11.6h-9.33v-11.6H234.8v-9.73h11.11V361.79h9.33v11.54H266.3Z"/></g></g></g></g></svg>